G04 EAGLE Gerber RS-274X export*
G75*
%MOMM*%
%FSLAX34Y34*%
%LPD*%
%INSilkscreen Bottom*%
%IPPOS*%
%AMOC8*
5,1,8,0,0,1.08239X$1,22.5*%
G01*
%ADD10C,0.152400*%
%ADD11C,0.203200*%


D10*
X45800Y52300D02*
X415000Y52300D01*
X415000Y833300D02*
X45800Y833300D01*
X416300Y832900D02*
X416300Y52800D01*
X45300Y52800D02*
X45300Y832900D01*
X164000Y50000D02*
X164000Y0D01*
X289000Y0D02*
X289000Y50000D01*
D11*
X57500Y7500D02*
X57402Y7502D01*
X57304Y7508D01*
X57206Y7517D01*
X57109Y7531D01*
X57012Y7548D01*
X56916Y7569D01*
X56821Y7594D01*
X56727Y7622D01*
X56635Y7655D01*
X56543Y7690D01*
X56453Y7730D01*
X56365Y7772D01*
X56278Y7819D01*
X56194Y7868D01*
X56111Y7921D01*
X56031Y7977D01*
X55952Y8037D01*
X55876Y8099D01*
X55803Y8164D01*
X55732Y8232D01*
X55664Y8303D01*
X55599Y8376D01*
X55537Y8452D01*
X55477Y8531D01*
X55421Y8611D01*
X55368Y8694D01*
X55319Y8778D01*
X55272Y8865D01*
X55230Y8953D01*
X55190Y9043D01*
X55155Y9135D01*
X55122Y9227D01*
X55094Y9321D01*
X55069Y9416D01*
X55048Y9512D01*
X55031Y9609D01*
X55017Y9706D01*
X55008Y9804D01*
X55002Y9902D01*
X55000Y10000D01*
X57500Y7500D02*
X112500Y7500D01*
X112598Y7502D01*
X112696Y7508D01*
X112794Y7517D01*
X112891Y7531D01*
X112988Y7548D01*
X113084Y7569D01*
X113179Y7594D01*
X113273Y7622D01*
X113365Y7655D01*
X113457Y7690D01*
X113547Y7730D01*
X113635Y7772D01*
X113722Y7819D01*
X113806Y7868D01*
X113889Y7921D01*
X113969Y7977D01*
X114048Y8037D01*
X114124Y8099D01*
X114197Y8164D01*
X114268Y8232D01*
X114336Y8303D01*
X114401Y8376D01*
X114463Y8452D01*
X114523Y8531D01*
X114579Y8611D01*
X114632Y8694D01*
X114681Y8778D01*
X114728Y8865D01*
X114770Y8953D01*
X114810Y9043D01*
X114845Y9135D01*
X114878Y9227D01*
X114906Y9321D01*
X114931Y9416D01*
X114952Y9512D01*
X114969Y9609D01*
X114983Y9706D01*
X114992Y9804D01*
X114998Y9902D01*
X115000Y10000D01*
X115000Y40000D02*
X114998Y40098D01*
X114992Y40196D01*
X114983Y40294D01*
X114969Y40391D01*
X114952Y40488D01*
X114931Y40584D01*
X114906Y40679D01*
X114878Y40773D01*
X114845Y40865D01*
X114810Y40957D01*
X114770Y41047D01*
X114728Y41135D01*
X114681Y41222D01*
X114632Y41306D01*
X114579Y41389D01*
X114523Y41469D01*
X114463Y41548D01*
X114401Y41624D01*
X114336Y41697D01*
X114268Y41768D01*
X114197Y41836D01*
X114124Y41901D01*
X114048Y41963D01*
X113969Y42023D01*
X113889Y42079D01*
X113806Y42132D01*
X113722Y42181D01*
X113635Y42228D01*
X113547Y42270D01*
X113457Y42310D01*
X113365Y42345D01*
X113273Y42378D01*
X113179Y42406D01*
X113084Y42431D01*
X112988Y42452D01*
X112891Y42469D01*
X112794Y42483D01*
X112696Y42492D01*
X112598Y42498D01*
X112500Y42500D01*
X57500Y42500D01*
X57402Y42498D01*
X57304Y42492D01*
X57206Y42483D01*
X57109Y42469D01*
X57012Y42452D01*
X56916Y42431D01*
X56821Y42406D01*
X56727Y42378D01*
X56635Y42345D01*
X56543Y42310D01*
X56453Y42270D01*
X56365Y42228D01*
X56278Y42181D01*
X56194Y42132D01*
X56111Y42079D01*
X56031Y42023D01*
X55952Y41963D01*
X55876Y41901D01*
X55803Y41836D01*
X55732Y41768D01*
X55664Y41697D01*
X55599Y41624D01*
X55537Y41548D01*
X55477Y41469D01*
X55421Y41389D01*
X55368Y41306D01*
X55319Y41222D01*
X55272Y41135D01*
X55230Y41047D01*
X55190Y40957D01*
X55155Y40865D01*
X55122Y40773D01*
X55094Y40679D01*
X55069Y40584D01*
X55048Y40488D01*
X55031Y40391D01*
X55017Y40294D01*
X55008Y40196D01*
X55002Y40098D01*
X55000Y40000D01*
X55000Y36000D01*
X55000Y14000D02*
X55000Y10000D01*
X115000Y10000D02*
X115000Y14000D01*
X115000Y36000D02*
X115000Y40000D01*
X100000Y17500D02*
X70000Y17500D01*
X70000Y32500D02*
X100000Y32500D01*
X70000Y32500D02*
X70000Y17500D01*
X100000Y17500D02*
X100000Y32500D01*
X455000Y560000D02*
X455098Y560002D01*
X455196Y560008D01*
X455294Y560017D01*
X455391Y560031D01*
X455488Y560048D01*
X455584Y560069D01*
X455679Y560094D01*
X455773Y560122D01*
X455865Y560155D01*
X455957Y560190D01*
X456047Y560230D01*
X456135Y560272D01*
X456222Y560319D01*
X456306Y560368D01*
X456389Y560421D01*
X456469Y560477D01*
X456548Y560537D01*
X456624Y560599D01*
X456697Y560664D01*
X456768Y560732D01*
X456836Y560803D01*
X456901Y560876D01*
X456963Y560952D01*
X457023Y561031D01*
X457079Y561111D01*
X457132Y561194D01*
X457181Y561278D01*
X457228Y561365D01*
X457270Y561453D01*
X457310Y561543D01*
X457345Y561635D01*
X457378Y561727D01*
X457406Y561821D01*
X457431Y561916D01*
X457452Y562012D01*
X457469Y562109D01*
X457483Y562206D01*
X457492Y562304D01*
X457498Y562402D01*
X457500Y562500D01*
X457500Y617500D01*
X457498Y617598D01*
X457492Y617696D01*
X457483Y617794D01*
X457469Y617891D01*
X457452Y617988D01*
X457431Y618084D01*
X457406Y618179D01*
X457378Y618273D01*
X457345Y618365D01*
X457310Y618457D01*
X457270Y618547D01*
X457228Y618635D01*
X457181Y618722D01*
X457132Y618806D01*
X457079Y618889D01*
X457023Y618969D01*
X456963Y619048D01*
X456901Y619124D01*
X456836Y619197D01*
X456768Y619268D01*
X456697Y619336D01*
X456624Y619401D01*
X456548Y619463D01*
X456469Y619523D01*
X456389Y619579D01*
X456306Y619632D01*
X456222Y619681D01*
X456135Y619728D01*
X456047Y619770D01*
X455957Y619810D01*
X455865Y619845D01*
X455773Y619878D01*
X455679Y619906D01*
X455584Y619931D01*
X455488Y619952D01*
X455391Y619969D01*
X455294Y619983D01*
X455196Y619992D01*
X455098Y619998D01*
X455000Y620000D01*
X425000Y620000D02*
X424902Y619998D01*
X424804Y619992D01*
X424706Y619983D01*
X424609Y619969D01*
X424512Y619952D01*
X424416Y619931D01*
X424321Y619906D01*
X424227Y619878D01*
X424135Y619845D01*
X424043Y619810D01*
X423953Y619770D01*
X423865Y619728D01*
X423778Y619681D01*
X423694Y619632D01*
X423611Y619579D01*
X423531Y619523D01*
X423452Y619463D01*
X423376Y619401D01*
X423303Y619336D01*
X423232Y619268D01*
X423164Y619197D01*
X423099Y619124D01*
X423037Y619048D01*
X422977Y618969D01*
X422921Y618889D01*
X422868Y618806D01*
X422819Y618722D01*
X422772Y618635D01*
X422730Y618547D01*
X422690Y618457D01*
X422655Y618365D01*
X422622Y618273D01*
X422594Y618179D01*
X422569Y618084D01*
X422548Y617988D01*
X422531Y617891D01*
X422517Y617794D01*
X422508Y617696D01*
X422502Y617598D01*
X422500Y617500D01*
X422500Y562500D01*
X422502Y562402D01*
X422508Y562304D01*
X422517Y562206D01*
X422531Y562109D01*
X422548Y562012D01*
X422569Y561916D01*
X422594Y561821D01*
X422622Y561727D01*
X422655Y561635D01*
X422690Y561543D01*
X422730Y561453D01*
X422772Y561365D01*
X422819Y561278D01*
X422868Y561194D01*
X422921Y561111D01*
X422977Y561031D01*
X423037Y560952D01*
X423099Y560876D01*
X423164Y560803D01*
X423232Y560732D01*
X423303Y560664D01*
X423376Y560599D01*
X423452Y560537D01*
X423531Y560477D01*
X423611Y560421D01*
X423694Y560368D01*
X423778Y560319D01*
X423865Y560272D01*
X423953Y560230D01*
X424043Y560190D01*
X424135Y560155D01*
X424227Y560122D01*
X424321Y560094D01*
X424416Y560069D01*
X424512Y560048D01*
X424609Y560031D01*
X424706Y560017D01*
X424804Y560008D01*
X424902Y560002D01*
X425000Y560000D01*
X429000Y560000D01*
X451000Y560000D02*
X455000Y560000D01*
X455000Y620000D02*
X451000Y620000D01*
X429000Y620000D02*
X425000Y620000D01*
X447500Y605000D02*
X447500Y575000D01*
X432500Y575000D02*
X432500Y605000D01*
X432500Y575000D02*
X447500Y575000D01*
X447500Y605000D02*
X432500Y605000D01*
X457500Y307500D02*
X457498Y307402D01*
X457492Y307304D01*
X457483Y307206D01*
X457469Y307109D01*
X457452Y307012D01*
X457431Y306916D01*
X457406Y306821D01*
X457378Y306727D01*
X457345Y306635D01*
X457310Y306543D01*
X457270Y306453D01*
X457228Y306365D01*
X457181Y306278D01*
X457132Y306194D01*
X457079Y306111D01*
X457023Y306031D01*
X456963Y305952D01*
X456901Y305876D01*
X456836Y305803D01*
X456768Y305732D01*
X456697Y305664D01*
X456624Y305599D01*
X456548Y305537D01*
X456469Y305477D01*
X456389Y305421D01*
X456306Y305368D01*
X456222Y305319D01*
X456135Y305272D01*
X456047Y305230D01*
X455957Y305190D01*
X455865Y305155D01*
X455773Y305122D01*
X455679Y305094D01*
X455584Y305069D01*
X455488Y305048D01*
X455391Y305031D01*
X455294Y305017D01*
X455196Y305008D01*
X455098Y305002D01*
X455000Y305000D01*
X457500Y307500D02*
X457500Y362500D01*
X457498Y362598D01*
X457492Y362696D01*
X457483Y362794D01*
X457469Y362891D01*
X457452Y362988D01*
X457431Y363084D01*
X457406Y363179D01*
X457378Y363273D01*
X457345Y363365D01*
X457310Y363457D01*
X457270Y363547D01*
X457228Y363635D01*
X457181Y363722D01*
X457132Y363806D01*
X457079Y363889D01*
X457023Y363969D01*
X456963Y364048D01*
X456901Y364124D01*
X456836Y364197D01*
X456768Y364268D01*
X456697Y364336D01*
X456624Y364401D01*
X456548Y364463D01*
X456469Y364523D01*
X456389Y364579D01*
X456306Y364632D01*
X456222Y364681D01*
X456135Y364728D01*
X456047Y364770D01*
X455957Y364810D01*
X455865Y364845D01*
X455773Y364878D01*
X455679Y364906D01*
X455584Y364931D01*
X455488Y364952D01*
X455391Y364969D01*
X455294Y364983D01*
X455196Y364992D01*
X455098Y364998D01*
X455000Y365000D01*
X425000Y365000D02*
X424902Y364998D01*
X424804Y364992D01*
X424706Y364983D01*
X424609Y364969D01*
X424512Y364952D01*
X424416Y364931D01*
X424321Y364906D01*
X424227Y364878D01*
X424135Y364845D01*
X424043Y364810D01*
X423953Y364770D01*
X423865Y364728D01*
X423778Y364681D01*
X423694Y364632D01*
X423611Y364579D01*
X423531Y364523D01*
X423452Y364463D01*
X423376Y364401D01*
X423303Y364336D01*
X423232Y364268D01*
X423164Y364197D01*
X423099Y364124D01*
X423037Y364048D01*
X422977Y363969D01*
X422921Y363889D01*
X422868Y363806D01*
X422819Y363722D01*
X422772Y363635D01*
X422730Y363547D01*
X422690Y363457D01*
X422655Y363365D01*
X422622Y363273D01*
X422594Y363179D01*
X422569Y363084D01*
X422548Y362988D01*
X422531Y362891D01*
X422517Y362794D01*
X422508Y362696D01*
X422502Y362598D01*
X422500Y362500D01*
X422500Y307500D01*
X422502Y307402D01*
X422508Y307304D01*
X422517Y307206D01*
X422531Y307109D01*
X422548Y307012D01*
X422569Y306916D01*
X422594Y306821D01*
X422622Y306727D01*
X422655Y306635D01*
X422690Y306543D01*
X422730Y306453D01*
X422772Y306365D01*
X422819Y306278D01*
X422868Y306194D01*
X422921Y306111D01*
X422977Y306031D01*
X423037Y305952D01*
X423099Y305876D01*
X423164Y305803D01*
X423232Y305732D01*
X423303Y305664D01*
X423376Y305599D01*
X423452Y305537D01*
X423531Y305477D01*
X423611Y305421D01*
X423694Y305368D01*
X423778Y305319D01*
X423865Y305272D01*
X423953Y305230D01*
X424043Y305190D01*
X424135Y305155D01*
X424227Y305122D01*
X424321Y305094D01*
X424416Y305069D01*
X424512Y305048D01*
X424609Y305031D01*
X424706Y305017D01*
X424804Y305008D01*
X424902Y305002D01*
X425000Y305000D01*
X429000Y305000D01*
X451000Y305000D02*
X455000Y305000D01*
X455000Y365000D02*
X451000Y365000D01*
X429000Y365000D02*
X425000Y365000D01*
X447500Y350000D02*
X447500Y320000D01*
X432500Y320000D02*
X432500Y350000D01*
X432500Y320000D02*
X447500Y320000D01*
X447500Y350000D02*
X432500Y350000D01*
X37500Y562500D02*
X37498Y562402D01*
X37492Y562304D01*
X37483Y562206D01*
X37469Y562109D01*
X37452Y562012D01*
X37431Y561916D01*
X37406Y561821D01*
X37378Y561727D01*
X37345Y561635D01*
X37310Y561543D01*
X37270Y561453D01*
X37228Y561365D01*
X37181Y561278D01*
X37132Y561194D01*
X37079Y561111D01*
X37023Y561031D01*
X36963Y560952D01*
X36901Y560876D01*
X36836Y560803D01*
X36768Y560732D01*
X36697Y560664D01*
X36624Y560599D01*
X36548Y560537D01*
X36469Y560477D01*
X36389Y560421D01*
X36306Y560368D01*
X36222Y560319D01*
X36135Y560272D01*
X36047Y560230D01*
X35957Y560190D01*
X35865Y560155D01*
X35773Y560122D01*
X35679Y560094D01*
X35584Y560069D01*
X35488Y560048D01*
X35391Y560031D01*
X35294Y560017D01*
X35196Y560008D01*
X35098Y560002D01*
X35000Y560000D01*
X37500Y562500D02*
X37500Y617500D01*
X37498Y617598D01*
X37492Y617696D01*
X37483Y617794D01*
X37469Y617891D01*
X37452Y617988D01*
X37431Y618084D01*
X37406Y618179D01*
X37378Y618273D01*
X37345Y618365D01*
X37310Y618457D01*
X37270Y618547D01*
X37228Y618635D01*
X37181Y618722D01*
X37132Y618806D01*
X37079Y618889D01*
X37023Y618969D01*
X36963Y619048D01*
X36901Y619124D01*
X36836Y619197D01*
X36768Y619268D01*
X36697Y619336D01*
X36624Y619401D01*
X36548Y619463D01*
X36469Y619523D01*
X36389Y619579D01*
X36306Y619632D01*
X36222Y619681D01*
X36135Y619728D01*
X36047Y619770D01*
X35957Y619810D01*
X35865Y619845D01*
X35773Y619878D01*
X35679Y619906D01*
X35584Y619931D01*
X35488Y619952D01*
X35391Y619969D01*
X35294Y619983D01*
X35196Y619992D01*
X35098Y619998D01*
X35000Y620000D01*
X5000Y620000D02*
X4902Y619998D01*
X4804Y619992D01*
X4706Y619983D01*
X4609Y619969D01*
X4512Y619952D01*
X4416Y619931D01*
X4321Y619906D01*
X4227Y619878D01*
X4135Y619845D01*
X4043Y619810D01*
X3953Y619770D01*
X3865Y619728D01*
X3778Y619681D01*
X3694Y619632D01*
X3611Y619579D01*
X3531Y619523D01*
X3452Y619463D01*
X3376Y619401D01*
X3303Y619336D01*
X3232Y619268D01*
X3164Y619197D01*
X3099Y619124D01*
X3037Y619048D01*
X2977Y618969D01*
X2921Y618889D01*
X2868Y618806D01*
X2819Y618722D01*
X2772Y618635D01*
X2730Y618547D01*
X2690Y618457D01*
X2655Y618365D01*
X2622Y618273D01*
X2594Y618179D01*
X2569Y618084D01*
X2548Y617988D01*
X2531Y617891D01*
X2517Y617794D01*
X2508Y617696D01*
X2502Y617598D01*
X2500Y617500D01*
X2500Y562500D01*
X2502Y562402D01*
X2508Y562304D01*
X2517Y562206D01*
X2531Y562109D01*
X2548Y562012D01*
X2569Y561916D01*
X2594Y561821D01*
X2622Y561727D01*
X2655Y561635D01*
X2690Y561543D01*
X2730Y561453D01*
X2772Y561365D01*
X2819Y561278D01*
X2868Y561194D01*
X2921Y561111D01*
X2977Y561031D01*
X3037Y560952D01*
X3099Y560876D01*
X3164Y560803D01*
X3232Y560732D01*
X3303Y560664D01*
X3376Y560599D01*
X3452Y560537D01*
X3531Y560477D01*
X3611Y560421D01*
X3694Y560368D01*
X3778Y560319D01*
X3865Y560272D01*
X3953Y560230D01*
X4043Y560190D01*
X4135Y560155D01*
X4227Y560122D01*
X4321Y560094D01*
X4416Y560069D01*
X4512Y560048D01*
X4609Y560031D01*
X4706Y560017D01*
X4804Y560008D01*
X4902Y560002D01*
X5000Y560000D01*
X9000Y560000D01*
X31000Y560000D02*
X35000Y560000D01*
X35000Y620000D02*
X31000Y620000D01*
X9000Y620000D02*
X5000Y620000D01*
X27500Y605000D02*
X27500Y575000D01*
X12500Y575000D02*
X12500Y605000D01*
X12500Y575000D02*
X27500Y575000D01*
X27500Y605000D02*
X12500Y605000D01*
X5000Y365000D02*
X4902Y364998D01*
X4804Y364992D01*
X4706Y364983D01*
X4609Y364969D01*
X4512Y364952D01*
X4416Y364931D01*
X4321Y364906D01*
X4227Y364878D01*
X4135Y364845D01*
X4043Y364810D01*
X3953Y364770D01*
X3865Y364728D01*
X3778Y364681D01*
X3694Y364632D01*
X3611Y364579D01*
X3531Y364523D01*
X3452Y364463D01*
X3376Y364401D01*
X3303Y364336D01*
X3232Y364268D01*
X3164Y364197D01*
X3099Y364124D01*
X3037Y364048D01*
X2977Y363969D01*
X2921Y363889D01*
X2868Y363806D01*
X2819Y363722D01*
X2772Y363635D01*
X2730Y363547D01*
X2690Y363457D01*
X2655Y363365D01*
X2622Y363273D01*
X2594Y363179D01*
X2569Y363084D01*
X2548Y362988D01*
X2531Y362891D01*
X2517Y362794D01*
X2508Y362696D01*
X2502Y362598D01*
X2500Y362500D01*
X2500Y307500D01*
X2502Y307402D01*
X2508Y307304D01*
X2517Y307206D01*
X2531Y307109D01*
X2548Y307012D01*
X2569Y306916D01*
X2594Y306821D01*
X2622Y306727D01*
X2655Y306635D01*
X2690Y306543D01*
X2730Y306453D01*
X2772Y306365D01*
X2819Y306278D01*
X2868Y306194D01*
X2921Y306111D01*
X2977Y306031D01*
X3037Y305952D01*
X3099Y305876D01*
X3164Y305803D01*
X3232Y305732D01*
X3303Y305664D01*
X3376Y305599D01*
X3452Y305537D01*
X3531Y305477D01*
X3611Y305421D01*
X3694Y305368D01*
X3778Y305319D01*
X3865Y305272D01*
X3953Y305230D01*
X4043Y305190D01*
X4135Y305155D01*
X4227Y305122D01*
X4321Y305094D01*
X4416Y305069D01*
X4512Y305048D01*
X4609Y305031D01*
X4706Y305017D01*
X4804Y305008D01*
X4902Y305002D01*
X5000Y305000D01*
X35000Y305000D02*
X35098Y305002D01*
X35196Y305008D01*
X35294Y305017D01*
X35391Y305031D01*
X35488Y305048D01*
X35584Y305069D01*
X35679Y305094D01*
X35773Y305122D01*
X35865Y305155D01*
X35957Y305190D01*
X36047Y305230D01*
X36135Y305272D01*
X36222Y305319D01*
X36306Y305368D01*
X36389Y305421D01*
X36469Y305477D01*
X36548Y305537D01*
X36624Y305599D01*
X36697Y305664D01*
X36768Y305732D01*
X36836Y305803D01*
X36901Y305876D01*
X36963Y305952D01*
X37023Y306031D01*
X37079Y306111D01*
X37132Y306194D01*
X37181Y306278D01*
X37228Y306365D01*
X37270Y306453D01*
X37310Y306543D01*
X37345Y306635D01*
X37378Y306727D01*
X37406Y306821D01*
X37431Y306916D01*
X37452Y307012D01*
X37469Y307109D01*
X37483Y307206D01*
X37492Y307304D01*
X37498Y307402D01*
X37500Y307500D01*
X37500Y362500D01*
X37498Y362598D01*
X37492Y362696D01*
X37483Y362794D01*
X37469Y362891D01*
X37452Y362988D01*
X37431Y363084D01*
X37406Y363179D01*
X37378Y363273D01*
X37345Y363365D01*
X37310Y363457D01*
X37270Y363547D01*
X37228Y363635D01*
X37181Y363722D01*
X37132Y363806D01*
X37079Y363889D01*
X37023Y363969D01*
X36963Y364048D01*
X36901Y364124D01*
X36836Y364197D01*
X36768Y364268D01*
X36697Y364336D01*
X36624Y364401D01*
X36548Y364463D01*
X36469Y364523D01*
X36389Y364579D01*
X36306Y364632D01*
X36222Y364681D01*
X36135Y364728D01*
X36047Y364770D01*
X35957Y364810D01*
X35865Y364845D01*
X35773Y364878D01*
X35679Y364906D01*
X35584Y364931D01*
X35488Y364952D01*
X35391Y364969D01*
X35294Y364983D01*
X35196Y364992D01*
X35098Y364998D01*
X35000Y365000D01*
X31000Y365000D01*
X9000Y365000D02*
X5000Y365000D01*
X5000Y305000D02*
X9000Y305000D01*
X31000Y305000D02*
X35000Y305000D01*
X12500Y320000D02*
X12500Y350000D01*
X27500Y350000D02*
X27500Y320000D01*
X27500Y350000D02*
X12500Y350000D01*
X12500Y320000D02*
X27500Y320000D01*
M02*
