G04 EAGLE Gerber RS-274X export*
G75*
%MOMM*%
%FSLAX34Y34*%
%LPD*%
%INSoldermask Top*%
%IPPOS*%
%AMOC8*
5,1,8,0,0,1.08239X$1,22.5*%
G01*
%ADD10C,2.235200*%
%ADD11C,0.457200*%
%ADD12R,2.819400X2.819400*%
%ADD13R,2.203200X1.003200*%
%ADD14R,3.203200X2.303200*%
%ADD15R,1.603200X1.803200*%
%ADD16R,1.253200X1.283200*%
%ADD17R,1.283200X1.253200*%
%ADD18R,1.503200X1.703200*%
%ADD19R,1.103200X2.603200*%
%ADD20R,1.003200X1.003200*%
%ADD21R,1.303200X1.203200*%
%ADD22R,1.203200X1.303200*%
%ADD23R,1.403200X0.753200*%
%ADD24R,1.203200X2.203200*%
%ADD25C,1.003200*%
%ADD26R,0.903200X0.553200*%
%ADD27C,0.896109*%
%ADD28R,0.503200X0.930200*%
%ADD29R,1.903200X3.503200*%
%ADD30R,1.203200X2.003200*%
%ADD31R,0.423200X1.203200*%
%ADD32R,1.203200X0.423200*%
%ADD33R,2.203200X1.603200*%
%ADD34R,1.603200X1.483200*%
%ADD35R,1.603200X2.153200*%
%ADD36R,1.603200X0.903200*%
%ADD37C,1.453200*%
%ADD38R,0.503200X1.003200*%
%ADD39R,1.150000X2.200000*%
%ADD40R,1.300000X3.050000*%
%ADD41C,0.853200*%
%ADD42C,1.203200*%
%ADD43R,0.503200X1.353200*%
%ADD44R,0.803200X1.353200*%
%ADD45C,0.251203*%
%ADD46R,1.903200X2.803200*%
%ADD47R,1.603200X1.203200*%
%ADD48R,1.403200X0.903200*%
%ADD49C,0.425956*%
%ADD50R,1.219200X1.346200*%
%ADD51R,1.270000X2.387600*%
%ADD52R,0.803200X0.803200*%
%ADD53C,2.082800*%
%ADD54R,2.203200X0.903200*%
%ADD55R,1.453200X1.203200*%
%ADD56R,1.303200X2.453200*%
%ADD57R,1.253200X1.303200*%


D10*
X438000Y672000D03*
X22000Y117000D03*
X438000Y122000D03*
X22000Y765000D03*
D11*
X139933Y353048D02*
X139933Y345428D01*
X145004Y345428D02*
X145004Y353048D01*
X150025Y353048D02*
X150025Y345428D01*
X155375Y345428D02*
X155375Y353048D01*
X160421Y353048D02*
X160421Y345428D01*
X165467Y345428D02*
X165467Y353048D01*
X169906Y357233D02*
X177526Y357233D01*
X177526Y362279D02*
X169906Y362279D01*
X169906Y367325D02*
X177526Y367325D01*
X177526Y372675D02*
X169906Y372675D01*
X169906Y377696D02*
X177526Y377696D01*
X177526Y382767D02*
X169906Y382767D01*
X165467Y386952D02*
X165467Y394572D01*
X160421Y394572D02*
X160421Y386952D01*
X155375Y386952D02*
X155375Y394572D01*
X150025Y394572D02*
X150025Y386952D01*
X145004Y386952D02*
X145004Y394572D01*
X139933Y394572D02*
X139933Y386952D01*
X135494Y382767D02*
X127874Y382767D01*
X127874Y377696D02*
X135494Y377696D01*
X135494Y372675D02*
X127874Y372675D01*
X127874Y367325D02*
X135494Y367325D01*
X135494Y362279D02*
X127874Y362279D01*
X127874Y357233D02*
X135494Y357233D01*
D12*
X152600Y370100D03*
D13*
X82150Y681540D03*
X82150Y669040D03*
D14*
X50900Y706540D03*
X50900Y644040D03*
D15*
X86000Y736500D03*
X114000Y736500D03*
D16*
X143650Y648400D03*
X161150Y648400D03*
D17*
X154900Y681750D03*
X154900Y664250D03*
D16*
X151150Y409400D03*
X133650Y409400D03*
D18*
X166700Y760800D03*
X147700Y760800D03*
X121500Y707800D03*
X102500Y707800D03*
D16*
X439550Y551200D03*
X422050Y551200D03*
D17*
X194700Y389250D03*
X194700Y371750D03*
D16*
X321750Y605300D03*
X339250Y605300D03*
X305750Y605700D03*
X288250Y605700D03*
X381150Y590400D03*
X398650Y590400D03*
X366650Y590300D03*
X349150Y590300D03*
D19*
X129700Y289400D03*
X129700Y154400D03*
X144700Y154400D03*
X159700Y154400D03*
X174700Y154400D03*
X159700Y289400D03*
X69700Y289400D03*
X84700Y289400D03*
X99700Y289400D03*
X114700Y289400D03*
X144700Y289400D03*
X99700Y154400D03*
X69700Y154400D03*
X114700Y154400D03*
X84700Y154400D03*
X174700Y289400D03*
D20*
X98800Y844100D03*
X83800Y844100D03*
X56800Y843900D03*
X71800Y843900D03*
X450400Y492100D03*
X450400Y507100D03*
D21*
X144500Y725400D03*
X144500Y708400D03*
D22*
X95600Y396700D03*
X78600Y396700D03*
X115700Y420700D03*
X98700Y420700D03*
X412400Y494500D03*
X429400Y494500D03*
X223800Y760800D03*
X206800Y760800D03*
D21*
X61900Y825100D03*
X61900Y808100D03*
D23*
X109999Y680200D03*
X109999Y670700D03*
X109999Y661200D03*
X136001Y661200D03*
X136001Y680200D03*
D24*
X438900Y573800D03*
X420900Y573800D03*
X438900Y622800D03*
X420900Y622800D03*
D25*
X417100Y598300D03*
X443900Y598300D03*
D26*
X110850Y346850D03*
X110850Y340350D03*
X110850Y333850D03*
X110850Y327350D03*
X90350Y327350D03*
X90350Y333850D03*
X90350Y340350D03*
X90350Y346850D03*
D27*
X203999Y728521D02*
X221201Y728521D01*
X221201Y721479D01*
X203999Y721479D01*
X203999Y728521D01*
D28*
X220100Y739135D03*
X215100Y739135D03*
X210100Y739135D03*
X205100Y739135D03*
X205100Y710865D03*
X210100Y710865D03*
X215100Y710865D03*
X220100Y710865D03*
D29*
X292600Y568500D03*
X329600Y568500D03*
D30*
X364700Y563500D03*
X389700Y563500D03*
D31*
X302300Y520300D03*
X297300Y520300D03*
X312300Y520300D03*
X322300Y520300D03*
X332300Y520300D03*
X307300Y520300D03*
X317300Y520300D03*
X327300Y520300D03*
X337300Y520300D03*
X287300Y520300D03*
X277300Y520300D03*
X267300Y520300D03*
X262300Y520300D03*
X272300Y520300D03*
X282300Y520300D03*
X292300Y520300D03*
D32*
X242300Y465300D03*
X242300Y460300D03*
X242300Y475300D03*
X242300Y485300D03*
X242300Y495300D03*
X242300Y470300D03*
X242300Y480300D03*
X242300Y490300D03*
X242300Y500300D03*
X242300Y450300D03*
X242300Y440300D03*
X242300Y430300D03*
X242300Y425300D03*
X242300Y435300D03*
X242300Y445300D03*
X242300Y455300D03*
D31*
X297300Y405300D03*
X302300Y405300D03*
X287300Y405300D03*
X277300Y405300D03*
X267300Y405300D03*
X292300Y405300D03*
X282300Y405300D03*
X272300Y405300D03*
X262300Y405300D03*
X312300Y405300D03*
X322300Y405300D03*
X332300Y405300D03*
X337300Y405300D03*
X327300Y405300D03*
X317300Y405300D03*
X307300Y405300D03*
D32*
X357300Y460300D03*
X357300Y465300D03*
X357300Y450300D03*
X357300Y440300D03*
X357300Y430300D03*
X357300Y455300D03*
X357300Y445300D03*
X357300Y435300D03*
X357300Y425300D03*
X357300Y475300D03*
X357300Y485300D03*
X357300Y495300D03*
X357300Y500300D03*
X357300Y490300D03*
X357300Y480300D03*
X357300Y470300D03*
D33*
X418000Y326600D03*
X418000Y168600D03*
D34*
X322000Y168000D03*
D35*
X322000Y317850D03*
D36*
X313300Y269600D03*
X313300Y258600D03*
X313300Y247600D03*
X313300Y236600D03*
X313300Y225600D03*
X313300Y214600D03*
X313300Y203600D03*
X313300Y192600D03*
X313300Y181600D03*
D37*
X422000Y278600D03*
X422000Y198600D03*
D38*
X168900Y91500D03*
X173900Y91500D03*
X178900Y91500D03*
X183900Y91500D03*
X188900Y91500D03*
X193900Y91500D03*
X198900Y91500D03*
X203900Y91500D03*
X208900Y91500D03*
X213900Y91500D03*
X218900Y91500D03*
X223900Y91500D03*
X228900Y91500D03*
X233900Y91500D03*
X238900Y91500D03*
X243900Y91500D03*
X248900Y91500D03*
X253900Y91500D03*
X258900Y91500D03*
X263900Y91500D03*
X268900Y91500D03*
X273900Y91500D03*
X278900Y91500D03*
X283900Y91500D03*
D39*
X314650Y75500D03*
D40*
X302900Y71250D03*
D39*
X138150Y75500D03*
D40*
X149900Y71250D03*
D41*
X136130Y801950D03*
X193930Y801950D03*
D42*
X121830Y802950D02*
X121830Y790950D01*
X208230Y790950D02*
X208230Y802950D01*
X208230Y834450D02*
X208230Y843450D01*
X121830Y843450D02*
X121830Y834450D01*
D43*
X162530Y791200D03*
X157530Y791200D03*
X152530Y791200D03*
X147530Y791200D03*
X167530Y791200D03*
X172530Y791200D03*
X177530Y791200D03*
X182530Y791200D03*
D44*
X141030Y791200D03*
X189030Y791200D03*
X133030Y791200D03*
X197030Y791200D03*
D45*
X110025Y832670D02*
X110025Y844890D01*
X118435Y844890D01*
X118435Y832670D01*
X110025Y832670D01*
X110025Y835056D02*
X118435Y835056D01*
X118435Y837442D02*
X110025Y837442D01*
X110025Y839828D02*
X118435Y839828D01*
X118435Y842214D02*
X110025Y842214D01*
X110025Y844600D02*
X118435Y844600D01*
X211625Y844890D02*
X211625Y832670D01*
X211625Y844890D02*
X220035Y844890D01*
X220035Y832670D01*
X211625Y832670D01*
X211625Y835056D02*
X220035Y835056D01*
X220035Y837442D02*
X211625Y837442D01*
X211625Y839828D02*
X220035Y839828D01*
X220035Y842214D02*
X211625Y842214D01*
X211625Y844600D02*
X220035Y844600D01*
D16*
X223450Y225600D03*
X205950Y225600D03*
D17*
X39700Y78450D03*
X39700Y60950D03*
X57000Y78450D03*
X57000Y60950D03*
X74300Y78450D03*
X74300Y60950D03*
X91600Y78450D03*
X91600Y60950D03*
X108900Y78450D03*
X108900Y60950D03*
D16*
X111550Y121200D03*
X129050Y121200D03*
X111550Y103500D03*
X129050Y103500D03*
D46*
X209000Y185400D03*
X234000Y185400D03*
D16*
X213850Y108800D03*
X196350Y108800D03*
X228450Y108600D03*
X245950Y108600D03*
D22*
X351200Y116300D03*
X334200Y116300D03*
X351200Y138700D03*
X334200Y138700D03*
D47*
X276600Y124000D03*
X298600Y133500D03*
X298600Y114500D03*
D48*
X259200Y129500D03*
X222200Y129500D03*
X181100Y121550D03*
X144100Y121550D03*
X202050Y150900D03*
X239050Y150900D03*
D17*
X350500Y98050D03*
X350500Y80550D03*
X333200Y98050D03*
X333200Y80550D03*
D49*
X179661Y690669D02*
X172999Y690669D01*
X172999Y697331D01*
X179661Y697331D01*
X179661Y690669D01*
X179661Y694716D02*
X172999Y694716D01*
X188239Y690669D02*
X194901Y690669D01*
X188239Y690669D02*
X188239Y697331D01*
X194901Y697331D01*
X194901Y690669D01*
X194901Y694716D02*
X188239Y694716D01*
D50*
X188950Y655740D03*
X180060Y676060D03*
X197840Y676060D03*
D51*
X20000Y455000D03*
X40000Y455000D03*
X60000Y455000D03*
X80000Y455000D03*
X100000Y455000D03*
X120000Y455000D03*
X140000Y455000D03*
X160000Y455000D03*
X160000Y615000D03*
X140000Y615000D03*
X120000Y615000D03*
X100000Y615000D03*
X80000Y615000D03*
X60000Y615000D03*
X40000Y615000D03*
X20000Y615000D03*
D22*
X288500Y275000D03*
X271500Y275000D03*
X288500Y255000D03*
X271500Y255000D03*
X288500Y235000D03*
X271500Y235000D03*
X288500Y215000D03*
X271500Y215000D03*
X288500Y195000D03*
X271500Y195000D03*
D21*
X229000Y794500D03*
X229000Y811500D03*
X90000Y823500D03*
X90000Y806500D03*
D16*
X336250Y375000D03*
X353750Y375000D03*
D17*
X210000Y401250D03*
X210000Y418750D03*
D22*
X76500Y17000D03*
X93500Y17000D03*
D16*
X51750Y16000D03*
X34250Y16000D03*
D22*
X34500Y33000D03*
X51500Y33000D03*
X398500Y635000D03*
X381500Y635000D03*
D16*
X398750Y615000D03*
X381250Y615000D03*
D22*
X408500Y350000D03*
X391500Y350000D03*
D16*
X408750Y370000D03*
X391250Y370000D03*
D22*
X208500Y559000D03*
X191500Y559000D03*
D16*
X208750Y541000D03*
X191250Y541000D03*
D22*
X51500Y340000D03*
X68500Y340000D03*
D16*
X51250Y360000D03*
X68750Y360000D03*
D52*
X189000Y580000D03*
X211000Y580000D03*
D22*
X191500Y601000D03*
X208500Y601000D03*
X381500Y155000D03*
X398500Y155000D03*
D48*
X413500Y85000D03*
X376500Y85000D03*
D53*
X441000Y52000D03*
X441000Y77400D03*
D50*
X390000Y114840D03*
X381110Y135160D03*
X398890Y135160D03*
D16*
X356250Y390000D03*
X373750Y390000D03*
D17*
X225000Y418750D03*
X225000Y401250D03*
X220000Y491250D03*
X220000Y508750D03*
X251000Y542250D03*
X251000Y559750D03*
X375000Y506250D03*
X375000Y523750D03*
D16*
X166250Y410000D03*
X183750Y410000D03*
X91250Y360000D03*
X108750Y360000D03*
D13*
X405000Y413500D03*
X405000Y426000D03*
X405000Y438500D03*
D14*
X436250Y388500D03*
X436250Y463500D03*
D54*
X283200Y787100D03*
X283200Y776100D03*
X283200Y765100D03*
X283200Y754100D03*
X283200Y743100D03*
X283200Y732100D03*
X283200Y721100D03*
X283200Y710100D03*
X283200Y699100D03*
X380200Y699100D03*
X380200Y710100D03*
X380200Y721100D03*
X380200Y732100D03*
X380200Y743100D03*
X380200Y754100D03*
X380200Y765100D03*
X380200Y776100D03*
X380200Y787100D03*
D17*
X260000Y693750D03*
X260000Y676250D03*
D55*
X435000Y773000D03*
X417000Y773000D03*
D22*
X429500Y796000D03*
X412500Y796000D03*
X428500Y710000D03*
X411500Y710000D03*
D56*
X414250Y745000D03*
X443750Y745000D03*
D57*
X429000Y729500D03*
D56*
X44750Y410000D03*
X15250Y410000D03*
D57*
X30000Y425500D03*
D16*
X218250Y647000D03*
X235750Y647000D03*
M02*
