M48
;GenerationSoftware,Autodesk,EAGLE,9.2.2*%
;CreationDate,2019-05-05T12:40:21Z*%
FMAT,2
ICI,OFF
METRIC,TZ,000.000
T7C0.350
T6C0.650
T5C0.800
T4C1.016
T3C1.250
T2C2.032
%
G90
M71
T2
X2200Y76500
X43800Y12200
X2200Y11700
X43800Y67200
T3
X42200Y27860
X42200Y19860
T4
X44100Y7740
X44100Y5200
T5
X41710Y59830
X44390Y59830
T6
X13613Y80195
X19393Y80195
T7
X33625Y33375
X22500Y6875
X34500Y45000
X33625Y32125
X34500Y43625
X34500Y31250
X37000Y43500
X23750Y72375
X32125Y41750
X16625Y80500
X31875Y39250
X23625Y37125
X25375Y7125
X23625Y35875
X24500Y8000
X26775Y37575
X26500Y10750
X23600Y12900
X23625Y34625
X32800Y76500
X32750Y46625
X31500Y77500
X31625Y43125
X21125Y47375
X22375Y47875
X9400Y2900
X40000Y53375
X43090Y60270
X42375Y36750
X5375Y32420
X28375Y35625
X25500Y44500
X6180Y58055
X19625Y50625
X20000Y45125
X13000Y47750
X20500Y52625
X38375Y43375
X16375Y58000
X25500Y47500
X10000Y59500
X18000Y34875
X3375Y59000
X5125Y57250
X37125Y33875
X36625Y37000
X32750Y19400
X30125Y35125
X38925Y25150
X7972Y35000
X32750Y67125
X34375Y53125
X23625Y69375
X23625Y71125
X2000Y8400
X36500Y61500
X40183Y56000
X13600Y69200
X30500Y68000
X38400Y44800
X8300Y10100
X14100Y67029
X17000Y42253
X9000Y38000
X12500Y76500
X37920Y37010
X37903Y35389
X35930Y35968
X15500Y33435
X14000Y83000
X10000Y75500
X10500Y79500
X16014Y59514
X14000Y56000
X22361Y53861
X23500Y51500
X39000Y52000
X34405Y17095
X32027Y14735
X11000Y39250
X23500Y5875
X42400Y53300
X40200Y51300
X12300Y64300
X5125Y55750
X27250Y46125
X29375Y44000
X18750Y27750
X19125Y42875
X20000Y27750
X20000Y43875
X11875Y37125
X12250Y32875
X12875Y34875
X36100Y21490
X28375Y36875
X28000Y41750
X23775Y55000
X29250Y49125
X34500Y49125
X37000Y48000
X40400Y66100
X39725Y27600
X44750Y53875
X13750Y42875
X3625Y36750
X17500Y39125
X18625Y36000
X21500Y68500
M30